<svg xmlns="http://www.w3.org/2000/svg" version="1.1" xmlns:xlink="http://www.w3.org/1999/xlink" xmlns:svgjs="http://svgjs.dev/svgjs" width="2000" height="1500" viewBox="0 0 2000 1500"><rect width="2000" height="1500" fill="#000000"></rect><g transform="matrix(0.75,0,0,0.75,249.090909090909,572.324940568609)"><svg viewBox="0 0 396 94" data-background-color="#000000" preserveAspectRatio="xMidYMid meet" height="474" width="2000" xmlns="http://www.w3.org/2000/svg" xmlns:xlink="http://www.w3.org/1999/xlink"><g id="tight-bounds" transform="matrix(1,0,0,1,0.2400000000000091,-0.019815508999272424)"><svg viewBox="0 0 395.52 94.03963101799854" height="94.03963101799854" width="395.52"><g><svg viewBox="0 0 581.927040679245 138.36014407582937" height="94.03963101799854" width="395.52"><g></g><g transform="matrix(1,0,0,1,186.4070406792449,0.3441794628751893)"><svg viewBox="0 0 395.52000000000004 137.671785150079" height="137.671785150079" width="395.52000000000004"><g id="textblocktransform"><svg viewBox="0 0 395.52000000000004 137.671785150079" height="137.671785150079" width="395.52000000000004" id="textblock"><g><svg viewBox="0 0 395.52000000000004 137.671785150079" height="137.671785150079" width="395.52000000000004"><g transform="matrix(1,0,0,1,0,0)"><svg width="395.52000000000004" viewBox="1.5 -32.5 94.95 33.05" height="137.671785150079" data-palette-color="url(#ea32652d-2517-4d27-9af6-30cf8877fcb2)"></svg></g></svg></g></svg></g></svg></g><g transform="matrix(1,0,0,1,0,0.3441794628751893)"><svg viewBox="0 0 108.98964831494841 137.671785150079" height="137.671785150079" width="108.98964831494841"><g><svg xmlns="http://www.w3.org/2000/svg" xmlns:xlink="http://www.w3.org/1999/xlink" version="1.1" x="0" y="0" viewBox="16 5.678 70.51500018051095 89.072" enable-background="new 0 0 100 100" xml:space="preserve" height="137.671785150079" width="108.98964831494841" class="icon-icon-0" data-fill-palette-color="accent" id="icon-0"></svg></g></svg></g></svg></g><defs></defs><mask id="cf318085-0b19-46f6-810e-ec2131a54d04"><g id="SvgjsG1443"><svg viewBox="0 0 395.52 94.03963101799854" height="94.03963101799854" width="395.52"><g><svg viewBox="0 0 581.927040679245 138.36014407582937" height="94.03963101799854" width="395.52"><g><rect width="12.415383662116398" height="138.36014407582937" x="141.49065266603844" y="0" fill="white" opacity="1" stroke-width="0" stroke="transparent" fill-opacity="1" class="rect-qz-0" rx="1%" id="SvgjsRect1442" data-palette-color="url(#ea32652d-2517-4d27-9af6-30cf8877fcb2)"></rect></g><g transform="matrix(1,0,0,1,186.4070406792449,0.3441794628751893)"><svg viewBox="0 0 395.52000000000004 137.671785150079" height="137.671785150079" width="395.52000000000004"><g id="SvgjsG1441"><svg viewBox="0 0 395.52000000000004 137.671785150079" height="137.671785150079" width="395.52000000000004" id="SvgjsSvg1440"><g><svg viewBox="0 0 395.52000000000004 137.671785150079" height="137.671785150079" width="395.52000000000004"><g transform="matrix(1,0,0,1,0,0)"><svg width="395.52000000000004" viewBox="1.5 -32.5 94.95 33.05" height="137.671785150079" data-palette-color="url(#ea32652d-2517-4d27-9af6-30cf8877fcb2)"><path d="M29-2.6L31.9-2.4 31.85 0 24.95 0 13.7-15.45 10.4-11.9 10.4-2.9 15.25-2.35 15.2 0 1.8 0 1.5-1.6 5.75-3.15 5.75-29.7 1.85-30.15 1.9-32.5 14.35-32.5 14.65-30.9 10.4-29.35 10.4-16.5 22.75-29.75 19.25-30.15 19.3-32.5 30.15-32.5 30.45-30.9 26.95-29.6 16.85-18.8 29-2.6ZM55.6-9.15L58.25-8.95Q58.4-4 57.65 0L57.65 0 34.35 0 34.05-1.6 38.3-3.15 38.3-29.9 34.75-30.1 34.8-32.5 57.65-32.5 57.7-30.8Q57.7-27.3 57.15-24.25L57.15-24.25 54.45-24.25 53.85-28.85 42.95-29.6 42.95-17.7 54.4-18.55 54.4-14.2 42.95-14.7 42.95-3.25 54.3-3.75 55.6-9.15ZM96.15-32.5L96.45-30.9 92.2-29.35 92.2 0 87.05 0.55 69.3-27.85 70.2-20.9 70.2-2.85 74.65-2.35 74.6 0 62.5 0 62.2-1.6 66.45-3.15 66.45-29.75 63.2-30.15 63.25-32.5 72.15-32.5 89.35-4.8 88.4-11.6 88.4-29.6 83.55-30.15 83.6-32.5 96.15-32.5Z" opacity="1" transform="matrix(1,0,0,1,0,0)" fill="white" class="wordmark-text-0" id="SvgjsPath1439"></path></svg></g></svg></g></svg></g></svg></g><g transform="matrix(1,0,0,1,0,0.3441794628751893)"><svg viewBox="0 0 108.98964831494841 137.671785150079" height="137.671785150079" width="108.98964831494841"><g><svg xmlns="http://www.w3.org/2000/svg" xmlns:xlink="http://www.w3.org/1999/xlink" version="1.1" x="0" y="0" viewBox="16 5.678 70.51500018051095 89.072" enable-background="new 0 0 100 100" xml:space="preserve" height="137.671785150079" width="108.98964831494841" class="icon-icon-0" data-fill-palette-color="accent" id="SvgjsSvg1438"><path d="M77.237 5.678H16V94.75h61.237c5.125 0 9.278-4.152 9.278-9.278V14.956C86.516 9.833 82.362 5.678 77.237 5.678M19.711 9.389h7.423v81.649h-7.423V9.389zM82.804 85.472c0 3.07-2.498 5.567-5.567 5.567H30.846V9.389h46.392c3.069 0 5.567 2.499 5.567 5.567V85.472z" fill="black"></path><polygon points="43.835,65.059 69.814,49.286 43.835,33.513 " fill="black"></polygon></svg></g></svg></g></svg></g><defs><mask></mask></defs></svg><rect width="395.52" height="94.03963101799854" fill="black" stroke="none" visibility="hidden"></rect></g></mask><linearGradient x1="0" x2="1" y1="0.5" y2="0.5" id="ea32652d-2517-4d27-9af6-30cf8877fcb2"><stop stop-color="#f00b51" offset="0"></stop><stop stop-color="#730062" offset="1"></stop></linearGradient><rect width="395.52" height="94.03963101799854" fill="url(#ea32652d-2517-4d27-9af6-30cf8877fcb2)" mask="url(#cf318085-0b19-46f6-810e-ec2131a54d04)" data-fill-palette-color="primary"></rect><mask id="82f45afc-ed23-49ac-9af9-057c5c32d8e9"><g id="SvgjsG1464"><svg viewBox="0 0 395.52 94.03963101799854" height="94.03963101799854" width="395.52"><g><svg viewBox="0 0 581.927040679245 138.36014407582937" height="94.03963101799854" width="395.52"><g></g><g transform="matrix(1,0,0,1,186.4070406792449,0.3441794628751893)"><svg viewBox="0 0 395.52000000000004 137.671785150079" height="137.671785150079" width="395.52000000000004"><g id="SvgjsG1463"><svg viewBox="0 0 395.52000000000004 137.671785150079" height="137.671785150079" width="395.52000000000004" id="SvgjsSvg1462"><g><svg viewBox="0 0 395.52000000000004 137.671785150079" height="137.671785150079" width="395.52000000000004"><g transform="matrix(1,0,0,1,0,0)"><svg width="395.52000000000004" viewBox="1.5 -32.5 94.95 33.05" height="137.671785150079" data-palette-color="url(#ea32652d-2517-4d27-9af6-30cf8877fcb2)"></svg></g></svg></g></svg></g></svg></g><g transform="matrix(1,0,0,1,0,0.3441794628751893)"><svg viewBox="0 0 108.98964831494841 137.671785150079" height="137.671785150079" width="108.98964831494841"><g><svg xmlns="http://www.w3.org/2000/svg" xmlns:xlink="http://www.w3.org/1999/xlink" version="1.1" x="0" y="0" viewBox="16 5.678 70.51500018051095 89.072" enable-background="new 0 0 100 100" xml:space="preserve" height="137.671785150079" width="108.98964831494841" class="icon-icon-0" data-fill-palette-color="accent" id="SvgjsSvg1461"><path d="M77.237 5.678H16V94.75h61.237c5.125 0 9.278-4.152 9.278-9.278V14.956C86.516 9.833 82.362 5.678 77.237 5.678M19.711 9.389h7.423v81.649h-7.423V9.389zM82.804 85.472c0 3.07-2.498 5.567-5.567 5.567H30.846V9.389h46.392c3.069 0 5.567 2.499 5.567 5.567V85.472z" fill="white"></path><polygon points="43.835,65.059 69.814,49.286 43.835,33.513 " fill="white"></polygon></svg></g></svg></g></svg></g><defs><mask></mask></defs><mask><g id="SvgjsG1460"><svg viewBox="0 0 395.52 94.03963101799854" height="94.03963101799854" width="395.52"><g><svg viewBox="0 0 581.927040679245 138.36014407582937" height="94.03963101799854" width="395.52"><g><rect width="12.415383662116398" height="138.36014407582937" x="141.49065266603844" y="0" fill="black" opacity="1" stroke-width="0" stroke="transparent" fill-opacity="1" class="rect-qz-0" rx="1%" id="SvgjsRect1459" data-palette-color="url(#ea32652d-2517-4d27-9af6-30cf8877fcb2)"></rect></g><g transform="matrix(1,0,0,1,186.4070406792449,0.3441794628751893)"><svg viewBox="0 0 395.52000000000004 137.671785150079" height="137.671785150079" width="395.52000000000004"><g id="SvgjsG1458"><svg viewBox="0 0 395.52000000000004 137.671785150079" height="137.671785150079" width="395.52000000000004" id="SvgjsSvg1457"><g><svg viewBox="0 0 395.52000000000004 137.671785150079" height="137.671785150079" width="395.52000000000004"><g transform="matrix(1,0,0,1,0,0)"><svg width="395.52000000000004" viewBox="1.5 -32.5 94.95 33.05" height="137.671785150079" data-palette-color="url(#ea32652d-2517-4d27-9af6-30cf8877fcb2)"><path d="M29-2.6L31.9-2.4 31.85 0 24.95 0 13.7-15.45 10.4-11.9 10.4-2.9 15.25-2.35 15.2 0 1.8 0 1.5-1.6 5.75-3.15 5.75-29.7 1.85-30.15 1.9-32.5 14.35-32.5 14.65-30.9 10.4-29.35 10.4-16.5 22.75-29.75 19.25-30.15 19.3-32.5 30.15-32.5 30.45-30.9 26.95-29.6 16.85-18.8 29-2.6ZM55.6-9.15L58.25-8.95Q58.4-4 57.65 0L57.65 0 34.35 0 34.05-1.6 38.3-3.15 38.3-29.9 34.75-30.1 34.8-32.5 57.65-32.5 57.7-30.8Q57.7-27.3 57.15-24.25L57.15-24.25 54.45-24.25 53.85-28.85 42.95-29.6 42.95-17.7 54.4-18.55 54.4-14.2 42.95-14.7 42.95-3.25 54.3-3.75 55.6-9.15ZM96.15-32.5L96.45-30.9 92.2-29.35 92.2 0 87.05 0.55 69.3-27.85 70.2-20.9 70.2-2.85 74.65-2.35 74.6 0 62.5 0 62.2-1.6 66.45-3.15 66.45-29.75 63.2-30.15 63.25-32.5 72.15-32.5 89.35-4.8 88.4-11.6 88.4-29.6 83.55-30.15 83.6-32.5 96.15-32.5Z" opacity="1" transform="matrix(1,0,0,1,0,0)" fill="black" class="wordmark-text-0" id="SvgjsPath1456"></path></svg></g></svg></g></svg></g></svg></g><g transform="matrix(1,0,0,1,0,0.3441794628751893)"><svg viewBox="0 0 108.98964831494841 137.671785150079" height="137.671785150079" width="108.98964831494841"><g><svg xmlns="http://www.w3.org/2000/svg" xmlns:xlink="http://www.w3.org/1999/xlink" version="1.1" x="0" y="0" viewBox="16 5.678 70.51500018051095 89.072" enable-background="new 0 0 100 100" xml:space="preserve" height="137.671785150079" width="108.98964831494841" class="icon-icon-0" data-fill-palette-color="accent" id="SvgjsSvg1455"><path d="M77.237 5.678H16V94.75h61.237c5.125 0 9.278-4.152 9.278-9.278V14.956C86.516 9.833 82.362 5.678 77.237 5.678M19.711 9.389h7.423v81.649h-7.423V9.389zM82.804 85.472c0 3.07-2.498 5.567-5.567 5.567H30.846V9.389h46.392c3.069 0 5.567 2.499 5.567 5.567V85.472z" fill="black"></path><polygon points="43.835,65.059 69.814,49.286 43.835,33.513 " fill="black"></polygon></svg></g></svg></g></svg></g><defs><mask></mask></defs></svg><rect width="395.52" height="94.03963101799854" fill="black" stroke="none" visibility="hidden"></rect></g></mask></svg><rect width="395.52" height="94.03963101799854" fill="black" stroke="none" visibility="hidden"></rect></g></mask><linearGradient x1="0" x2="1" y1="0.5" y2="0.5" id="96892b1a-2647-4166-a864-4fa6b065ce55"><stop stop-color="#f00b51" offset="0"></stop><stop stop-color="#730062" offset="1"></stop></linearGradient><rect width="395.52" height="94.03963101799854" fill="url(#96892b1a-2647-4166-a864-4fa6b065ce55)" mask="url(#82f45afc-ed23-49ac-9af9-057c5c32d8e9)" data-fill-palette-color="accent"></rect></svg><rect width="395.52" height="94.03963101799854" fill="none" stroke="none" visibility="hidden"></rect></g></svg></g></svg>